<svg height="512pt" viewBox="0 -18 512 512" width="512pt" xmlns="http://www.w3.org/2000/svg"><path d="m512 70.621094v61.792968l-8.828125 2.472657v273.652343l-244.433594 68.152344-2.738281-.707031-247.171875-67.445313v-273.742187l-8.828125-2.382813v-61.792968l258.648438-70.621094zm0 0" fill="#f29c1f"/><path d="m512 70.621094-253.175781 70.621094-2.648438-.707032-256.175781-69.914062 258.648438-70.621094zm0 0" fill="#f9eab0"/><path d="m503.171875 134.886719v273.652343l-244.433594 68.152344-2.738281-.707031v-273.746094l2.824219.796875zm0 0" fill="#d25627"/><path d="m256.175781 140.535156-.175781.707032v60.996093l-247.171875-67.441406-8.828125-2.382813v-61.792968zm0 0" fill="#fac176"/><path d="m512 70.621094v61.792968l-8.828125 2.472657-244.347656 68.148437-2.824219-.796875v-60.996093l.175781-.707032 2.648438.707032zm0 0" fill="#e57e25"/><g fill="#fac176"><path d="m44.136719 379.585938c-4.875 0-8.828125-3.953126-8.828125-8.828126v-141.242187c0-4.875 3.953125-8.824219 8.828125-8.824219s8.828125 3.949219 8.828125 8.824219v141.242187c0 4.875-3.953125 8.828126-8.828125 8.828126zm0 0"/><path d="m44.136719 203.035156c-4.875 0-8.828125-3.953125-8.828125-8.828125v-8.828125c0-4.875 3.953125-8.828125 8.828125-8.828125s8.828125 3.953125 8.828125 8.828125v8.828125c0 4.875-3.953125 8.828125-8.828125 8.828125zm0 0"/></g></svg>