<svg height="512pt" viewBox="0 -17 512 512" width="512pt" xmlns="http://www.w3.org/2000/svg"><path d="m510.910156 72.855469c-.308594-.601563-.6875-1.164063-1.128906-1.675781-.96875-1.023438-2.15625-1.824219-3.472656-2.339844-.191406-.066406-.347656-.199219-.550782-.253906l-244.925781-68.269532c-1.484375-.417968-3.054687-.421875-4.539062-.015625l-250.011719 68.265625c-.214844.058594-.382812.199219-.589844.273438-.367187.136718-.722656.304687-1.066406.492187-.566406.292969-1.097656.652344-1.582031 1.066407-.289063.238281-.566407.5-.824219.78125-.4375.507812-.816406 1.066406-1.125 1.667968-.175781.285156-.335938.585938-.476562.894532-.394532.972656-.6054692 2.007812-.617188 3.058593v59.734375c0 .199219.101562.367188.113281.5625.054688.589844.171875 1.171875.351563 1.734375.121094.5.289062.988281.5 1.457031.257812.480469.5625.9375.914062 1.355469.308594.4375.660156.84375 1.050782 1.210938.40625.335937.84375.628906 1.304687.882812.492187.3125 1.011719.570313 1.554687.773438.191407.066406.332032.207031.527344.261719l2.21875.601562v258.082031c0 .195313.097656.359375.113282.550781.050781.585938.167968 1.160157.34375 1.71875.121093.511719.289062 1.007813.503906 1.484376.257812.472656.558594.917968.898437 1.332031.3125.445312.667969.859375 1.0625 1.234375.402344.332031.835938.625 1.296875.875.488282.3125 1.011719.578125 1.554688.78125.183594.066406.320312.203125.511718.257812l239.046876 65.21875 2.644531.683594c.695312.179688 1.414062.273438 2.132812.273438.773438 0 1.546875-.105469 2.292969-.316407l236.292969-65.878906c.175781-.046875.300781-.179687.472656-.242187.558594-.207032 1.089844-.476563 1.585937-.804688 2.292969-1.472656 3.792969-3.914062 4.070313-6.625.011719-.191406.109375-.351562.109375-.542969v-258.0625l2.304688-.644531c.179687-.050781.304687-.183594.476562-.242188.558594-.210937 1.089844-.484374 1.589844-.8125.957031-.476562 1.765625-1.207031 2.332031-2.109374.710937-.789063 1.1875-1.757813 1.382813-2.804688.175781-.558594.292968-1.136719.347656-1.722656.003906-.183594.097656-.335938.097656-.523438v-59.734375c-.011719-1.046875-.222656-2.085937-.617188-3.054687-.136718-.308594-.296874-.605469-.472656-.890625zm-491.625 57.738281-2.21875-.597656v-42.015625l230.398438 62.859375v42.027344zm245.25 40.074219v-18.355469l230.398438-64.273438v42.019532l-230.398438 64.269531zm-6.019531-153.285157 213.183594 59.417969-212.96875 59.417969-217.789063-59.417969zm-11.050781 193.171876v246.917968l-221.863282-60.53125v-246.90625zm238.933594 186.425781-221.863282 61.859375v-246.800782l221.863282-61.886718zm0 0"/><path d="m51.199219 375.46875c4.714843 0 8.535156-3.820312 8.535156-8.535156v-136.53125c0-4.714844-3.820313-8.535156-8.535156-8.535156-4.710938 0-8.53125 3.820312-8.53125 8.535156v136.53125c0 4.714844 3.820312 8.535156 8.53125 8.535156zm0 0"/><path d="m51.199219 204.800781c4.714843 0 8.535156-3.820312 8.535156-8.53125v-8.535156c0-4.710937-3.820313-8.535156-8.535156-8.535156-4.710938 0-8.53125 3.824219-8.53125 8.535156v8.535156c0 4.710938 3.820312 8.53125 8.53125 8.53125zm0 0"/></svg>