<svg height="512pt" viewBox="-18 0 511 512" width="512pt" xmlns="http://www.w3.org/2000/svg" xmlns:xlink="http://www.w3.org/1999/xlink"><linearGradient id="linear0" gradientUnits="userSpaceOnUse" x1=".5" x2="474.5" y1="256" y2="256"><stop offset="0" stop-color="#00f2fe"/><stop offset=".0208" stop-color="#03effe"/><stop offset=".2931" stop-color="#24d2fe"/><stop offset=".5538" stop-color="#3cbdfe"/><stop offset=".7956" stop-color="#4ab0fe"/><stop offset="1" stop-color="#4facfe"/></linearGradient><path d="m349.089844 460.964844c-5.777344 14.867187-15.765625 27.558594-28.890625 36.707031-13.453125 9.375-29.257813 14.328125-45.699219 14.328125h-194c-44.113281 0-80-35.886719-80-80v-352c0-44.113281 35.886719-80 80-80h194c34.757812 0 65.335938 22.191406 76.085938 55.226562 3.417968 10.503907-2.328126 21.789063-12.832032 25.207032-10.5 3.421875-21.789062-2.324219-25.207031-12.828125-5.371094-16.511719-20.664063-27.605469-38.046875-27.605469h-194c-22.054688 0-40 17.945312-40 40v352c0 22.054688 17.945312 40 40 40h194c16.636719 0 31.28125-10.019531 37.304688-25.519531 4-10.296875 15.589843-15.402344 25.886718-11.402344 10.292969 4 15.398438 15.589844 11.398438 25.886719zm-191.589844-39.84375c0 11.046875 8.953125 20 20 20s20-8.953125 20-20-8.953125-20-20-20-20 8.953125-20 20zm60-330c0-11.046875-8.953125-20-20-20h-40c-11.046875 0-20 8.953125-20 20s8.953125 20 20 20h40c11.046875 0 20-8.953125 20-20zm257 165c0 77.195312-62.804688 140-140 140s-140-62.804688-140-140c0-77.195313 62.804688-140 140-140s140 62.804687 140 140zm-40 0c0-55.140625-44.859375-100-100-100s-100 44.859375-100 100 44.859375 100 100 100 100-44.859375 100-100zm-60-20h-20v-20c0-11.046875-8.953125-20-20-20s-20 8.953125-20 20v20h-20c-11.046875 0-20 8.953125-20 20s8.953125 20 20 20h20v20c0 11.046875 8.953125 20 20 20s20-8.953125 20-20v-20h20c11.046875 0 20-8.953125 20-20s-8.953125-20-20-20zm0 0" fill="url(#linear0)"/></svg>