<svg height="512pt" viewBox="-7 0 512 512" width="512pt" xmlns="http://www.w3.org/2000/svg"><path d="m22.96875 239.140625h451.613281v265.359375h-451.613281zm0 0" fill="#e6e2e6"/><path d="m22.96875 239.140625h30.003906v265.359375h-30.003906zm0 0" fill="#d8d1d7"/><path d="m143.589844 269.5h210.371094v172.011719h-210.371094zm0 0" fill="#928392"/><path d="m136.089844 261.09375h210.367187v33.742188h-210.367187zm0 0" fill="#7a6d79"/><path d="m281.210938 13.109375h-32.4375v47.039063h32.4375c7.164062 0 13.027343-5.863282 13.027343-13.027344v-20.984375c0-7.164063-5.863281-13.027344-13.027343-13.027344zm0 0" fill="#4f66d1"/><path d="m248.773438 13.109375h30.003906v47.039063h-30.003906zm0 0" fill="#314dca"/><g fill="#d8d1d7"><path d="m266.773438 269.5h34.125v172.011719h-34.125zm0 0"/><path d="m196.652344 269.5h34.125v172.011719h-34.125zm0 0"/><path d="m126.527344 269.5h34.125v172.011719h-34.125zm0 0"/><path d="m336.894531 269.5h34.125v172.011719h-34.125zm0 0"/></g><path d="m266.773438 269.5h24.488281v172.011719h-24.488281zm0 0" fill="#cac0c9"/><path d="m196.652344 269.5h24.484375v172.011719h-24.484375zm0 0" fill="#cac0c9"/><path d="m126.527344 269.5h24.488281v172.011719h-24.488281zm0 0" fill="#cac0c9"/><path d="m336.898438 269.5h24.484374v172.011719h-24.484374zm0 0" fill="#cac0c9"/><path d="m372.214844 436.25h-246.878906c-7.164063 0-13.027344 5.863281-13.027344 13.027344v21.097656h272.933594v-21.097656c0-7.164063-5.863282-13.027344-13.027344-13.027344zm0 0" fill="#bbb0ba"/><path d="m112.578125 446.652344c-.175781.847656-.269531 1.726562-.269531 2.625v21.097656h272.933594v-21.097656c0-.898438-.09375-1.777344-.269532-2.625zm0 0" fill="#a89ca8"/><path d="m396.023438 470.375h-294.5c-8.1875 0-14.890626 6.699219-14.890626 14.890625v4.34375c0 8.191406 6.703126 14.890625 14.890626 14.890625h294.5c8.191406 0 14.890624-6.699219 14.890624-14.890625v-4.34375c0-8.191406-6.699218-14.890625-14.890624-14.890625zm0 0" fill="#cac0c9"/><path d="m396.023438 480.773438h-294.5c-4.492188 0-8.53125-2.023438-11.265626-5.199219-2.25 2.609375-3.625 5.996093-3.625 9.691406v4.34375c0 8.191406 6.699219 14.890625 14.890626 14.890625h294.5c8.191406 0 14.890624-6.699219 14.890624-14.890625v-4.34375c0-3.695313-1.371093-7.082031-3.621093-9.691406-2.734375 3.175781-6.773438 5.199219-11.269531 5.199219zm0 0" fill="#bbb0ba"/><path d="m490.050781 512h-482.550781c-4.140625 0-7.5-3.359375-7.5-7.5 0-4.144531 3.359375-7.5 7.5-7.5h482.550781c4.140625 0 7.5 3.355469 7.5 7.5 0 4.140625-3.359375 7.5-7.5 7.5zm0 0" fill="#43cd8e"/><path d="m248.773438 138.492188c-4.140626 0-7.5-3.359376-7.5-7.5v-123.492188c0-4.140625 3.359374-7.5 7.5-7.5 4.144531 0 7.503906 3.359375 7.503906 7.5v123.492188c0 4.140624-3.359375 7.5-7.503906 7.5zm0 0" fill="#e6e2e6"/><path d="m491.164062 224.863281-72.878906-78.488281c-5.34375-5.75-12.824218-9.019531-20.660156-9.019531h-124.363281l94.886719 102.183593h116.648437c7.605469 0 11.550781-9.09375 6.367187-14.675781zm0 0" fill="#314dca"/><path d="m316.886719 137.355469h-43.625l94.886719 102.183593h45.273437zm0 0" fill="#2740b1"/><path d="m99.925781 137.355469c-7.835937 0-15.316406 3.269531-20.660156 9.019531l-72.882813 78.488281c-5.179687 5.582031-1.234374 14.679688 6.367188 14.679688h116.652344l94.882812-102.183594h-124.359375zm0 0" fill="#314dca"/><path d="m36.386719 224.863281 72.882812-78.488281c5.339844-5.75 12.824219-9.019531 20.660157-9.019531h-30.003907c-7.835937 0-15.316406 3.269531-20.660156 9.019531l-72.882813 78.488281c-5.179687 5.582031-1.234374 14.679688 6.367188 14.679688h30.003906c-7.605468-.003907-11.550781-9.097657-6.367187-14.679688zm0 0" fill="#2740b1"/><path d="m372.148438 239.539062-117.183594-124.042968c-3.34375-3.601563-9.035156-3.601563-12.378906 0l-117.183594 124.042968zm0 0" fill="#6c7fd9"/><path d="m254.964844 115.496094c-3.34375-3.601563-9.035156-3.601563-12.378906 0l-117.183594 124.042968h30.003906l108.371094-114.714843zm0 0" fill="#4f66d1"/><path d="m380.933594 239.140625h-264.316406c-8.1875 0-14.890626 6.703125-14.890626 14.890625v4.34375c0 8.191406 6.703126 14.890625 14.890626 14.890625h264.316406c8.1875 0 14.890625-6.699219 14.890625-14.890625v-4.34375c0-8.1875-6.703125-14.890625-14.890625-14.890625zm0 0" fill="#cac0c9"/><path d="m380.933594 249.542969h-264.316406c-4.492188 0-8.53125-2.027344-11.265626-5.203125-2.25 2.613281-3.625 5.996094-3.625 9.691406v4.34375c0 8.191406 6.699219 14.890625 14.890626 14.890625h264.3125c8.191406 0 14.890624-6.699219 14.890624-14.890625v-4.34375c0-3.695312-1.371093-7.078125-3.621093-9.691406-2.734375 3.175781-6.773438 5.203125-11.265625 5.203125zm0 0" fill="#bbb0ba"/></svg>