<svg height="512pt" viewBox="-4 0 512 512" width="512pt" xmlns="http://www.w3.org/2000/svg"><path d="m26.308594 238.851562h451.613281v265.355469h-451.613281zm0 0" fill="#e6e2e6"/><path d="m26.308594 238.851562h30.003906v265.355469h-30.003906zm0 0" fill="#d8d1d7"/><path d="m146.929688 269.210938h210.367187v172.011718h-210.367187zm0 0" fill="#928392"/><path d="m139.429688 260.804688h210.367187v33.742187h-210.367187zm0 0" fill="#7a6d79"/><path d="m284.550781 12.820312h-32.433593v47.039063h32.433593c7.164063 0 13.027344-5.863281 13.027344-13.027344v-20.988281c0-7.164062-5.863281-13.023438-13.027344-13.023438zm0 0" fill="#4f66d1"/><path d="m252.117188 12.820312h30v47.039063h-30zm0 0" fill="#314dca"/><g fill="#d8d1d7"><path d="m270.113281 269.210938h34.125v172.011718h-34.125zm0 0"/><path d="m199.992188 269.210938h34.125v172.011718h-34.125zm0 0"/><path d="m129.867188 269.210938h34.125v172.011718h-34.125zm0 0"/><path d="m340.238281 269.210938h34.125v172.011718h-34.125zm0 0"/></g><path d="m270.113281 269.210938h24.488281v172.011718h-24.488281zm0 0" fill="#cac0c9"/><path d="m199.992188 269.210938h24.484374v172.011718h-24.484374zm0 0" fill="#cac0c9"/><path d="m129.867188 269.210938h24.488281v172.011718h-24.488281zm0 0" fill="#cac0c9"/><path d="m340.238281 269.210938h24.484375v172.011718h-24.484375zm0 0" fill="#cac0c9"/><path d="m375.554688 435.957031h-246.878907c-7.164062 0-13.027343 5.863281-13.027343 13.027344v21.097656h272.933593v-21.097656c0-7.164063-5.863281-13.027344-13.027343-13.027344zm0 0" fill="#bbb0ba"/><path d="m115.917969 446.359375c-.175781.851563-.269531 1.726563-.269531 2.625v21.097656h272.933593v-21.097656c0-.898437-.09375-1.773437-.269531-2.625zm0 0" fill="#a89ca8"/><path d="m399.367188 470.082031h-294.503907c-8.1875 0-14.890625 6.703125-14.890625 14.890625v4.34375c0 8.191406 6.703125 14.890625 14.890625 14.890625h294.5c8.191407 0 14.890625-6.699219 14.890625-14.890625v-4.34375c.003906-8.1875-6.699218-14.890625-14.886718-14.890625zm0 0" fill="#cac0c9"/><path d="m399.367188 480.484375h-294.503907c-4.492187 0-8.53125-2.027344-11.265625-5.199219-2.253906 2.609375-3.625 5.992188-3.625 9.691406v4.34375c0 8.1875 6.699219 14.890626 14.890625 14.890626h294.5c8.191407 0 14.890625-6.703126 14.890625-14.890626v-4.34375c0-3.695312-1.371094-7.082031-3.621094-9.691406-2.734374 3.171875-6.773437 5.199219-11.265624 5.199219zm0 0" fill="#bbb0ba"/><path d="m494.503906 224.570312-72.882812-78.488281c-5.339844-5.75-12.820313-9.015625-20.660156-9.015625h-124.359376l94.886719 102.183594h116.652344c7.601563 0 11.546875-9.097656 6.363281-14.679688zm0 0" fill="#314dca"/><path d="m320.226562 137.066406h-43.625l94.886719 102.183594h45.273438zm0 0" fill="#2740b1"/><path d="m103.265625 137.066406c-7.835937 0-15.316406 3.265625-20.660156 9.019532l-72.878907 78.488281c-5.183593 5.578125-1.238281 14.675781 6.363282 14.675781h116.652344l94.882812-102.183594zm0 0" fill="#314dca"/><path d="m39.726562 224.574219 72.882813-78.488281c5.339844-5.753907 12.824219-9.019532 20.660156-9.019532h-30.003906c-7.835937 0-15.316406 3.265625-20.660156 9.019532l-72.878907 78.488281c-5.183593 5.578125-1.238281 14.675781 6.363282 14.675781h30.003906c-7.605469 0-11.550781-9.097656-6.367188-14.675781zm0 0" fill="#2740b1"/><path d="m375.488281 239.25-117.183593-124.042969c-3.347657-3.601562-9.035157-3.601562-12.378907 0l-117.183593 124.042969zm0 0" fill="#6c7fd9"/><path d="m258.304688 115.207031c-3.347657-3.601562-9.035157-3.601562-12.378907 0l-117.183593 124.042969h30l108.375-114.714844zm0 0" fill="#4f66d1"/><path d="m384.269531 238.851562h-264.3125c-8.1875 0-14.890625 6.699219-14.890625 14.890626v4.34375c0 8.1875 6.703125 14.890624 14.890625 14.890624h264.3125c8.191407 0 14.894531-6.703124 14.894531-14.890624v-4.34375c0-8.191407-6.703124-14.890626-14.894531-14.890626zm0 0" fill="#cac0c9"/><path d="m384.269531 249.253906h-264.3125c-4.492187 0-8.53125-2.027344-11.265625-5.203125-2.25 2.609375-3.625 5.996094-3.625 9.691407v4.34375c0 8.191406 6.699219 14.890624 14.890625 14.890624h264.3125c8.191407 0 14.890625-6.699218 14.890625-14.890624v-4.34375c0-3.695313-1.371094-7.082032-3.621094-9.691407-2.734374 3.175781-6.773437 5.203125-11.269531 5.203125zm0 0" fill="#bbb0ba"/><path d="m16.234375 246.640625h2.722656v250.359375h-7.972656c-4.140625 0-7.5 3.355469-7.5 7.5 0 4.140625 3.359375 7.5 7.5 7.5h223.773437c4.144532 0 7.503907-3.359375 7.503907-7.5 0-4.144531-3.359375-7.5-7.503907-7.5-5.355468 0-125.140624 0-129.746093 0-4.074219 0-7.390625-3.316406-7.390625-7.390625v-4.34375c0-4.074219 3.3125-7.390625 7.390625-7.390625h294.5c4.074219 0 7.390625 3.316406 7.390625 7.390625v4.34375c0 4.074219-3.316406 7.390625-7.390625 7.390625-5.128907 0-124.992188 0-129.75 0-4.144531 0-7.5 3.355469-7.5 7.5 0 4.140625 3.355469 7.5 7.5 7.5h223.773437c4.144532 0 7.5-3.359375 7.5-7.5 0-4.144531-3.355468-7.5-7.5-7.5h-7.96875v-119.296875c0-4.140625-3.355468-7.5-7.5-7.5-4.144531 0-7.5 3.359375-7.5 7.5v119.296875h-49.921875c.808594-2.316406 1.257813-4.800781 1.257813-7.390625v-4.34375c0-12.347656-10.046875-22.390625-22.390625-22.390625h-3.285157v-13.597656c0-9.117188-5.980468-16.855469-14.21875-19.527344v-148.984375h2.410157c12.347656 0 22.390625-10.042969 22.390625-22.390625v-4.34375c0-2.589844-.445313-5.074219-1.257813-7.390625h65.015625v96.058594c0 4.144531 3.355469 7.503906 7.5 7.503906 4.144532 0 7.5-3.359375 7.5-7.503906v-96.058594h2.71875c14.171875 0 21.5-16.886719 11.855469-27.242187l-72.882813-78.242188c-6.738281-7.230469-16.269531-11.375-26.148437-11.375h-119.097656l-18.074219-19.402344c-1.210938-1.300781-2.632812-2.367187-4.175781-3.1875v-39.542968h24.933593c11.320313 0 20.527344-9.207032 20.527344-20.527344v-20.984375c0-11.320313-9.207031-20.527344-20.527344-20.527344h-25.183593c-.839844-3.226563-3.765625-5.609375-7.25-5.609375-4.144531 0-7.5 3.359375-7.5 7.5v99.691406c-1.546875.820313-2.96875 1.886719-4.179688 3.1875l-18.074219 19.398438h-119.09375c-9.882812 0-19.414062 4.148437-26.148437 11.378906l-72.886719 78.242188c-9.65625 10.371093-2.292968 27.242187 11.855469 27.242187zm66.382813 238.625v4.34375c0 2.589844.449218 5.074219 1.261718 7.390625h-49.921875v-250.359375h65.015625c-.8125 2.316406-1.257812 4.800781-1.257812 7.390625v4.34375c0 12.347656 10.042968 22.390625 22.390625 22.390625h2.40625v148.988281c-8.238281 2.667969-14.21875 10.40625-14.21875 19.523438v13.597656h-3.28125c-12.347657 0-22.394531 10.042969-22.394531 22.390625zm110.019531-204.5v147.984375h-21v-147.984375zm70.121093 0v147.984375h-20.996093v-147.984375zm70.125 0v147.984375h-20.996093v-147.984375zm-36 147.984375h-19.121093v-147.984375h19.121093zm-70.121093 0h-19.125v-147.984375h19.125zm-70.125 0h-19.125v-147.984375h19.125zm-33.339844 34.125v-13.597656c0-3.046875 2.476563-5.527344 5.523437-5.527344h1.191407 244.496093 1.191407c3.046875 0 5.527343 2.480469 5.527343 5.527344v13.597656zm243.710937-34.125h-19.125v-147.984375h19.125zm24.800782-174.71875v4.34375c0 4.074219-3.316406 7.390625-7.390625 7.390625-13.875 0-251.804688 0-264.316407 0-4.074218 0-7.386718-3.316406-7.386718-7.390625v-4.34375c0-4.074219 3.3125-7.390625 7.386718-7.390625h264.316407c4.074219 0 7.390625 3.316406 7.390625 7.390625zm-95.824219-109.25h105.121094c5.734375 0 11.265625 2.40625 15.175781 6.601562l72.878906 78.238282c.730469.785156.191406 2.019531-.875 2.019531-10.855468 0-100.519531 0-111.386718 0-45-48.308594-78.445313-84.210937-80.914063-86.859375zm-5.761719-118.644531v20.984375c0 3.046875-2.476562 5.527344-5.523437 5.527344h-24.9375v-32.039063h24.9375c3.042969 0 5.523437 2.480469 5.523437 5.527344zm-38.664062 94.464843c.375-.402343 1.027344-.402343 1.402344 0 4.515624 4.851563 98.863281 106.132813 103.433593 111.039063h-208.269531l83.136719-89.25zm-236.199219 109.019532 72.882813-78.238282c3.90625-4.195312 9.4375-6.601562 15.171874-6.601562h105.121094c-4.398437 4.722656-76.660156 82.296875-80.914062 86.859375-10.839844 0-100.53125 0-111.386719 0-1.066406 0-1.609375-1.234375-.875-2.019531zm0 0"/></svg>