<svg id="Capa_1" enable-background="new 0 0 512 512" height="512" viewBox="0 0 512 512" width="512" xmlns="http://www.w3.org/2000/svg" xmlns:xlink="http://www.w3.org/1999/xlink"><linearGradient id="SVGID_1_" gradientUnits="userSpaceOnUse" x1="0" x2="512" y1="256" y2="256"><stop offset="0" stop-color="#00f2fe"/><stop offset=".0208" stop-color="#03effe"/><stop offset=".2931" stop-color="#24d2fe"/><stop offset=".5538" stop-color="#3cbdfe"/><stop offset=".7956" stop-color="#4ab0fe"/><stop offset="1" stop-color="#4facfe"/></linearGradient><path d="m506.142 150.858-50-50c-3.751-3.75-8.838-5.858-14.142-5.858h-126v-55c0-22.056-17.944-40-40-40h-40c-22.056 0-40 17.944-40 40v5h-126c-5.305 0-10.392 2.107-14.143 5.857l-50 50c-7.81 7.811-7.81 20.475 0 28.285l35.858 35.858-35.858 35.858c-7.81 7.811-7.81 20.475 0 28.285l50 50c3.751 3.75 8.838 5.857 14.143 5.857h126v187h-56c-11.046 0-20 8.954-20 20s8.954 20 20 20h232c11.046 0 20-8.954 20-20s-8.954-20-20-20h-56v-157c0-11.046-8.954-20-20-20s-20 8.954-20 20v157h-40v-432h40v175c0 11.046 8.954 20 20 20h146c5.305 0 10.392-2.107 14.143-5.857l50-50c7.81-7.811 7.81-20.475-.001-28.285zm-427.858-65.858h117.716v60h-117.716l-30-30zm0 160-30-30 30.001-30h117.715v60zm355.432-50h-117.716v-60h117.716l30 30z" fill="url(#SVGID_1_)"/></svg>